<svg xmlns="http://www.w3.org/2000/svg" viewBox="0 0 24 24" fill="currentColor">
  <path d="M12 13C11.43 13 11 12.55 11 12S11.43 11 12 11C12.54 11 13 11.45 13 12S12.54 13 12 13M22 12.5C22 8.92 18.03 8.13 14.33 10.13C14 9.73 13.59 9.42 13.11 9.22C13.3 8.29 13.74 7.24 14.73 6.75C17.09 5.57 17 2 12.5 2C8.93 2 8.14 5.96 10.13 9.65C9.72 9.97 9.4 10.39 9.21 10.87C8.28 10.68 7.23 10.25 6.73 9.26C5.56 6.89 2 7 2 11.5C2 15.07 5.95 15.85 9.64 13.87C9.96 14.27 10.39 14.59 10.88 14.79C10.68 15.71 10.24 16.75 9.26 17.24C6.9 18.42 7 22 11.5 22C15.07 22 15.86 18.04 13.87 14.34C14.27 14 14.59 13.59 14.79 13.11C15.71 13.3 16.75 13.74 17.24 14.73C18.42 17.09 22 17 22 12.5Z"/>
</svg>
